<svg xmlns="http://www.w3.org/2000/svg" viewBox="0 0 100 100" width="512" height="512">
  <circle cx="50" cy="50" r="46" fill="none" stroke="#faf9f5" stroke-width="1.6" stroke-dasharray="0.7 3.05"/>
  <path d="M50 4 A46 46 0 0 1 81.1 83.9" fill="none" stroke="#d97757" stroke-width="2.6" stroke-linecap="round"/>
  <circle cx="81.1" cy="83.9" r="2.2" fill="#d97757"/>
  <circle cx="50" cy="50" r="34" fill="none" stroke="#faf9f5" stroke-width="1" opacity=".35"/>
  <circle cx="50" cy="50" r="24" fill="none" stroke="#faf9f5" stroke-width="1" opacity=".5"/>
  <g stroke="#faf9f5" stroke-width="1" opacity=".65">
    <line x1="63" y1="50" x2="71" y2="50" transform="rotate(0 50 50)"/>
    <line x1="63" y1="50" x2="71" y2="50" transform="rotate(30 50 50)"/>
    <line x1="63" y1="50" x2="71" y2="50" transform="rotate(60 50 50)"/>
    <line x1="63" y1="50" x2="71" y2="50" transform="rotate(90 50 50)"/>
    <line x1="63" y1="50" x2="71" y2="50" transform="rotate(120 50 50)"/>
    <line x1="63" y1="50" x2="71" y2="50" transform="rotate(150 50 50)"/>
    <line x1="63" y1="50" x2="71" y2="50" transform="rotate(180 50 50)"/>
    <line x1="63" y1="50" x2="71" y2="50" transform="rotate(210 50 50)"/>
    <line x1="63" y1="50" x2="71" y2="50" transform="rotate(240 50 50)"/>
    <line x1="63" y1="50" x2="71" y2="50" transform="rotate(270 50 50)"/>
    <line x1="63" y1="50" x2="71" y2="50" transform="rotate(300 50 50)"/>
    <line x1="63" y1="50" x2="71" y2="50" transform="rotate(330 50 50)"/>
  </g>
  <circle cx="50" cy="50" r="7.5" fill="#d97757"/>
  <circle cx="50" cy="50" r="3.8" fill="none" stroke="#141413" stroke-width="1.4"/>
</svg>